<svg xmlns="http://www.w3.org/2000/svg" width="900" height="640" viewBox="0 0 900 640">
  <rect width="900" height="640" fill="#f3f6ff"/>
  <rect x="80" y="70" width="740" height="500" rx="20" fill="#fff" stroke="#dbe4ff"/>
  <rect x="80" y="70" width="740" height="78" rx="20" fill="#3159d4"/>
  <text x="120" y="120" font-family="Arial" font-size="30" font-weight="700" fill="#fff">Shoe Shop + Chatbot</text>
  <path d="M180 390 C260 300 335 360 420 305 C470 275 540 280 600 330 C650 370 700 385 760 382 L740 450 L180 450 Z" fill="#3159d4"/>
  <rect x="585" y="190" width="170" height="120" rx="18" fill="#eef3ff" stroke="#3159d4"/>
  <text x="615" y="240" font-family="Arial" font-size="22" font-weight="700" fill="#3159d4">Chatbot AI</text>
  <circle cx="640" cy="275" r="8" fill="#3159d4"/>
  <circle cx="675" cy="275" r="8" fill="#3159d4"/>
  <circle cx="710" cy="275" r="8" fill="#3159d4"/>
  <rect x="145" y="185" width="330" height="56" rx="28" fill="#ffcc33"/>
  <text x="185" y="222" font-family="Arial" font-size="24" font-weight="700" fill="#1f2b49">E-Commerce ASP.NET</text>
</svg>
