<svg xmlns="http://www.w3.org/2000/svg" width="900" height="640" viewBox="0 0 900 640">
  <rect width="900" height="640" fill="#fff4f2"/>
  <rect x="75" y="65" width="750" height="510" rx="18" fill="#fff" stroke="#ffd5cc"/>
  <rect x="75" y="65" width="750" height="76" rx="18" fill="#ff6b4a"/>
  <text x="115" y="115" font-family="Arial" font-size="30" font-weight="700" fill="#fff">Milk Tea Online</text>
  <circle cx="240" cy="330" r="95" fill="#ffd5a8"/>
  <circle cx="450" cy="330" r="95" fill="#ffc0cb"/>
  <circle cx="660" cy="330" r="95" fill="#c9f0d2"/>
  <rect x="195" y="235" width="90" height="180" rx="34" fill="#ffffff" stroke="#ff6b4a" stroke-width="8"/>
  <rect x="405" y="235" width="90" height="180" rx="34" fill="#ffffff" stroke="#ff6b4a" stroke-width="8"/>
  <rect x="615" y="235" width="90" height="180" rx="34" fill="#ffffff" stroke="#ff6b4a" stroke-width="8"/>
  <circle cx="225" cy="385" r="8" fill="#5b3521"/>
  <circle cx="250" cy="395" r="8" fill="#5b3521"/>
  <circle cx="435" cy="385" r="8" fill="#5b3521"/>
  <circle cx="460" cy="395" r="8" fill="#5b3521"/>
  <circle cx="645" cy="385" r="8" fill="#5b3521"/>
  <circle cx="670" cy="395" r="8" fill="#5b3521"/>
  <text x="320" y="520" font-family="Arial" font-size="34" font-weight="700" fill="#e53935">Full source + report</text>
</svg>
